<svg id="Layer_1" data-name="Layer 1" xmlns="http://www.w3.org/2000/svg" viewBox="0 0 250 250"><defs><style>.cls-1{fill:#fff;}</style></defs><title>Resources_Icons</title><path class="cls-1" d="M193.61,37.56H56.36A1.39,1.39,0,0,0,55,39V213a1.38,1.38,0,0,0,1.39,1.38H193.61A1.38,1.38,0,0,0,195,213V39A1.39,1.39,0,0,0,193.61,37.56Zm-135.86,174V82.8H148l33.2-33.2H57.75V40.34H192.22v9.34L156.86,82.82h35.36V211.57Z"/><path class="cls-1" d="M73.4,169.28h56.54a1.39,1.39,0,0,0,1.39-1.39V97a1.39,1.39,0,0,0-1.39-1.39H73.4A1.39,1.39,0,0,0,72,97v70.88A1.39,1.39,0,0,0,73.4,169.28Zm1.39-70.89h53.77V166.5H74.79Z"/><path class="cls-1" d="M176.46,95.62h-39.2a1.39,1.39,0,1,0,0,2.77h39.2a1.39,1.39,0,0,0,0-2.77Z"/><path class="cls-1" d="M176.46,109.79h-39.2a1.39,1.39,0,0,0,0,2.78h39.2a1.39,1.39,0,0,0,0-2.78Z"/><path class="cls-1" d="M176.46,124h-39.2a1.39,1.39,0,1,0,0,2.78h39.2a1.39,1.39,0,0,0,0-2.78Z"/><path class="cls-1" d="M176.46,138.15h-39.2a1.39,1.39,0,1,0,0,2.77h39.2a1.39,1.39,0,0,0,0-2.77Z"/><path class="cls-1" d="M176.46,152.32h-39.2a1.39,1.39,0,0,0,0,2.78h39.2a1.39,1.39,0,0,0,0-2.78Z"/><path class="cls-1" d="M176.46,166.5h-39.2a1.39,1.39,0,1,0,0,2.78h39.2a1.39,1.39,0,0,0,0-2.78Z"/><path class="cls-1" d="M176.46,180.68H73.59a1.39,1.39,0,0,0,0,2.77H176.46a1.39,1.39,0,0,0,0-2.77Z"/><path class="cls-1" d="M176.46,194.85H73.59a1.39,1.39,0,0,0,0,2.78H176.46a1.39,1.39,0,0,0,0-2.78Z"/></svg>