<?xml version="1.0" encoding="UTF-8"?>
<svg width="106px" height="115px" viewBox="0 0 106 115" version="1.1" xmlns="http://www.w3.org/2000/svg" xmlns:xlink="http://www.w3.org/1999/xlink">
    <!-- Generator: Sketch 53.2 (72643) - https://sketchapp.com -->
    <title>Bluetooth_FM_Color</title>
    <desc>Created with Sketch.</desc>
    <g id="Bluetooth_FM_Color" stroke="none" stroke-width="1" fill="none" fill-rule="evenodd">
        <path d="M42.063,115 C66.959,115 84.117,103.174 84.117,57.987 C84.117,12.8 66.959,0.974 42.063,0.974 C17.167,0.974 0,12.8 0,57.987 C0,103.174 17.167,115 42.063,115 Z M36.603,57.987 L16.222,37.552 L22.128,31.646 L38.369,47.887 L38.369,8.962 L67.895,38.489 L48.396,57.987 L67.895,77.485 L38.369,107.012 L38.369,68.087 L22.128,84.328 L16.222,78.422 L36.603,57.987 Z M46.667,86.844 L56.095,77.417 L46.675,67.995 L46.667,86.844 Z M46.667,29.13 L56.095,38.558 L46.675,47.979 L46.667,29.13 L46.667,29.13 Z" id="Fill-1" fill="#0082FC"></path>
        <path d="M96.384,5.947 L95.302,5.947 L95.302,8.901 L95.968,8.901 C97.507,8.901 98.006,8.027 98.006,7.237 C98.006,6.322 97.59,5.947 96.384,5.947 Z M98.089,14.228 L95.427,9.983 L95.302,9.983 L95.302,14.228 L93.638,14.228 L93.638,4.616 L96.55,4.616 C98.838,4.616 99.753,5.573 99.753,7.029 C99.753,8.652 98.755,9.65 97.216,9.816 C97.424,10.066 97.798,10.607 98.173,11.189 L100.17,14.228 L98.089,14.228 Z M89.685,9.4 C89.685,13.146 92.723,16.391 96.467,16.391 C100.253,16.391 103.249,13.312 103.249,9.567 C103.249,5.781 100.253,2.577 96.467,2.577 C92.723,2.577 89.685,5.656 89.685,9.4 Z M105.246,9.484 C105.246,14.228 101.21,18.222 96.467,18.222 C91.516,18.222 87.73,14.394 87.73,9.484 C87.73,4.657 91.641,0.747 96.467,0.747 C101.418,0.747 105.246,4.533 105.246,9.484 L105.246,9.484 Z" id="Fill-4" fill="#000000"></path>
    </g>
</svg>