<?xml version="1.0" encoding="utf-8"?>
<!-- Generator: Adobe Illustrator 22.0.1, SVG Export Plug-In . SVG Version: 6.00 Build 0)  -->
<svg version="1.1" id="Layer_1" xmlns="http://www.w3.org/2000/svg" xmlns:xlink="http://www.w3.org/1999/xlink" x="0px" y="0px"
	 viewBox="0 0 85 85" style="enable-background:new 0 0 85 85;" xml:space="preserve">
<style type="text/css">
	.st0{fill:#FFFFFF;}
	.st1{fill:none;}
	.st2{opacity:0.6;fill:#00A9CE;}
	.st3{opacity:0.8;fill:#00A9CE;}
	.st4{opacity:0.5;fill:#00A9CE;}
	.st5{fill:#00A9CE;}
</style>
<rect y="0" class="st0" width="85" height="85"/>
<path class="st1" d="M41.8,38.7L41.8,38.7L41.8,38.7z"/>
<polygon class="st1" points="41.5,38.8 41.5,38.8 41.5,38.8 "/>
<g>
	<g>
		<path class="st2" d="M58.1,11.1c0,0-0.1,0-0.1,0.1c-0.2,0.1-0.3,0.2-0.5,0.2l-15.5,8.9l18,10.4V10.7
			C59.4,10.7,58.8,10.8,58.1,11.1z"/>
		<path class="st3" d="M26.4,73.8l16.4-9.5L24.8,54l0,20.3C25.4,74.3,25.9,74.1,26.4,73.8z"/>
		<path class="st4" d="M78.5,63.1L41.6,41.8l0,0l-1.7-1L6.5,21.6c-0.2,0.6-0.4,1.2-0.4,1.9c0,0.1,0,0.3,0,0.4v38.2
			c0,1.2,0.7,2.3,1.7,2.9l15.2,8.9c0.5,0.3,1.1,0.4,1.7,0.4l0-19.5l0-0.8l34.5,19.9c0.1,0.1,0.2,0.1,0.3,0.1c0,0,0.1,0,0.1,0
			c1,0.4,1.8,0.1,2.7-0.5l5.8-3.3l9.2-5.5C77.9,64.3,78.3,63.8,78.5,63.1z"/>
		<path class="st5" d="M78.7,38V23.5c0-1.9-1-3.6-2.6-4.5l-13.4-7.8c-0.8-0.4-1.7-0.7-2.6-0.6v20.1L29.9,13.3l-3.4-1.9
			c-1.5-0.8-2.8-0.9-4.3-0.2c0,0-0.1,0-0.1,0.1c-0.2,0.1-0.3,0.2-0.5,0.3l-5.3,3.1L8.8,19c0,0,0,0,0,0c-1,0.6-1.8,1.5-2.3,2.6
			c0,0,33.3,19.2,33.3,19.2l1.7,1l0,0l36.9,21.3c0.2-0.7,0.2-1.9,0.2-1.9V38z"/>
	</g>
</g>
</svg>
