<?xml version="1.0" encoding="UTF-8" standalone="no"?>
<svg width="22px" height="24px" viewBox="0 0 22 24" version="1.1" xmlns="http://www.w3.org/2000/svg" xmlns:xlink="http://www.w3.org/1999/xlink">
    <!-- Generator: Sketch 41.1 (35376) - http://www.bohemiancoding.com/sketch -->
    <title>Slice 1</title>
    <desc>Created with Sketch.</desc>
    <defs></defs>
    <g id="Page-1" stroke="none" stroke-width="1" fill="none" fill-rule="evenodd" opacity="0.581578351">
        <path d="M1,8.98190158 C1.07865112,8.66969611 1.16252905,8.35880408 1.23533112,8.04502247 C2.13782781,4.1557855 5.68521728,1.55753195 9.40546498,2.06268225 C13.2115818,2.57939084 16.0595736,5.9755612 16.0125323,9.98051253 C15.9897583,11.929137 15.3395177,13.6504045 14.1166919,15.1885779 C16.1379759,17.3049291 18.1430816,19.4044683 20.1730769,21.5300136 C19.9389903,21.7927022 19.7870393,21.9630558 19.6395685,22.128681 C17.6264981,19.9965685 15.6309748,17.8831069 13.6176555,15.7507317 C12.4778365,16.7249126 11.3513335,17.3804521 10.0450031,17.6637618 C5.89578325,18.5634705 1.88457619,15.7125105 1.13315933,11.3196993 C1.1042874,11.1503965 1.04505017,10.9868728 1,10.8207222 L1,8.98190158" id="Path" stroke="#FFFFFF" stroke-width="2"></path>
    </g>
</svg>